<?xml version="1.0" encoding="UTF-8" standalone="no"?>
<!DOCTYPE svg PUBLIC "-//W3C//DTD SVG 1.1//EN" "http://www.w3.org/Graphics/SVG/1.1/DTD/svg11.dtd">
<svg width="100%" height="100%" viewBox="0 0 255 256" version="1.1" xmlns="http://www.w3.org/2000/svg" xmlns:xlink="http://www.w3.org/1999/xlink" xml:space="preserve" xmlns:serif="http://www.serif.com/" style="fill-rule:evenodd;clip-rule:evenodd;stroke-linecap:round;stroke-linejoin:round;stroke-miterlimit:1.5;">
    <g transform="matrix(1,0,0,1,-257,0)">
        <g id="Layer2">
        </g>
        <g id="tricko">
        </g>
        <g id="topanky-2" serif:id="topanky 2" transform="matrix(1,0,0,1,3.16352,0.663308)">
            <g transform="matrix(0.918347,0,0,0.918347,262.943,9.03282)">
                <path d="M256,6.243C256,2.795 253.205,0 249.757,0L6.243,0C2.795,0 0,2.795 0,6.243L0,249.757C0,253.205 2.795,256 6.243,256L249.757,256C253.205,256 256,253.205 256,249.757L256,6.243Z" style="fill:url(#_Linear1);"/>
            </g>
            <g id="topanka" transform="matrix(0.929812,0.0391148,-0.0391148,0.929812,29.9436,3.82422)">
                <g transform="matrix(0.99719,0.0749199,-0.0749199,0.99719,7.34923,-26.2862)">
                    <path d="M314.649,44.247C310.296,45.429 306.977,54.136 303.847,59.729C300.421,65.852 294.077,70.053 292.161,76.973C291.831,78.163 291.65,79.384 291.665,80.62C291.783,90.265 302.912,94.065 310.519,96.145C312.128,96.585 313.73,97.056 315.348,97.464C317.575,98.026 319.825,98.521 322.072,98.997C324.883,99.593 327.681,100.201 330.455,100.951C334.184,101.958 337.87,103.053 341.416,104.598C351.1,108.82 359.645,115.257 369.109,119.884C380.005,125.211 392.123,127.207 403.874,123.702C406.35,122.963 408.709,121.762 410.784,120.226C412.306,119.099 413.522,117.708 414.533,116.112C415.178,115.094 415.816,114.007 416.136,112.837C418.252,105.096 407.734,101.581 402.121,100.629C400.73,100.393 399.332,100.189 397.962,99.847C396.125,99.389 394.132,98.798 392.578,97.68C387.256,93.848 383.135,88.144 379.389,82.844C376.933,79.372 374.13,76.013 372.059,72.291C370.485,69.462 369.422,66.283 368.288,63.257C366.528,58.564 365.44,51.089 361.025,47.859C358.506,46.016 355.398,47.259 353.193,49.063C349.208,52.324 345.939,58.006 340.208,57.886C335.536,57.788 330.997,56.75 327.579,53.359C324.507,50.313 320.427,43.378 314.649,44.247Z" style="fill:none;stroke:rgb(128,128,128);stroke-width:4.84px;"/>
                </g>
                <path d="M359.635,64.559C361.742,63.408 363.774,62.153 365.794,60.858" style="fill:none;stroke:rgb(128,128,128);stroke-width:4.84px;"/>
                <path d="M364.542,76.26C366.325,75.065 368.079,73.829 369.869,72.645" style="fill:none;stroke:rgb(128,128,128);stroke-width:4.84px;"/>
                <path d="M369.279,87.148C371.666,85.188 374.084,83.265 376.475,81.309" style="fill:none;stroke:rgb(128,128,128);stroke-width:4.84px;"/>
                <path d="M297.357,69.516C299.356,72.086 301.438,74.616 304.128,76.499C313.273,82.899 324.491,83.904 334.254,88.885C340.326,91.983 345.195,96.763 350.737,100.653C354.436,103.25 358.413,105.419 362.317,107.683C368.585,111.319 374.938,114.802 381.803,117.2C388.441,119.518 395.483,121.319 402.559,121.3C405.981,121.291 409.451,121.065 412.237,118.88" style="fill:none;stroke:rgb(128,128,128);stroke-width:4.84px;"/>
            </g>
            <g id="lodicka" transform="matrix(1.38346,-0.00166355,0.00175927,1.46307,-144.79,-1.62186)">
                <g transform="matrix(0.850943,0,0,0.850943,53.2496,51.7647)">
                    <path d="M432.314,77.239L433.565,103.848L439.368,103.848C439.368,103.848 439.986,90.509 440.357,85.677C441.187,74.858 443.661,72.869 443.955,71.4" style="fill:none;stroke:rgb(128,128,128);stroke-width:3.71px;"/>
                </g>
                <g transform="matrix(0.850943,0,0,0.850943,53.2496,51.7647)">
                    <path d="M443.955,71.4C443.817,71.759 443.633,71.997 443.398,72.086C428.462,77.713 414.644,87.725 402.756,103.848L358.339,103.45C355.738,86.951 375.548,85.635 375.548,85.635C375.548,85.635 387.349,95.409 399.366,83.914C419.394,64.757 438.161,52.657 439.164,52.365C442.003,51.536 445.363,67.747 443.955,71.4Z" style="fill:none;stroke:rgb(128,128,128);stroke-width:3.71px;"/>
                </g>
            </g>
        </g>
        <g id="accesorize">
        </g>
    </g>
    <defs>
        <linearGradient id="_Linear1" x1="0" y1="0" x2="1" y2="0" gradientUnits="userSpaceOnUse" gradientTransform="matrix(-3.97711,-412.452,412.452,-3.97711,160.244,256)"><stop offset="0" style="stop-color:rgb(235,254,251);stop-opacity:1"/><stop offset="0.56" style="stop-color:rgb(205,254,246);stop-opacity:1"/><stop offset="1" style="stop-color:rgb(85,255,228);stop-opacity:1"/></linearGradient>
    </defs>
</svg>
